<svg xmlns="http://www.w3.org/2000/svg" xmlns:xlink="http://www.w3.org/1999/xlink" width="760" height="506" version="1.1" viewBox="0 0 760 506"><title>Google-Fonts-SUSE-Specimen-02</title><defs><path id="path-1" d="M481.677556,161.528083 C512.95746,161.528083 538.314833,136.102427 538.314833,104.738292 C538.314833,73.3741568 512.95746,47.9485015 481.677556,47.9485015 C450.397652,47.9485015 425.040279,73.3741568 425.040279,104.738292 C425.040279,136.102427 450.397652,161.528083 481.677556,161.528083 Z"/><mask id="mask-2" width="113.275" height="113.58" x="0" y="0" fill="#fff" maskContentUnits="userSpaceOnUse" maskUnits="objectBoundingBox"><use xlink:href="#path-1"/></mask><path id="path-3" d="M695.410648,329.539236 C719.687588,329.539236 739.367937,309.805892 739.367937,285.463578 C739.367937,261.121264 719.687588,241.387919 695.410648,241.387919 C671.133707,241.387919 651.453358,261.121264 651.453358,285.463578 C651.453358,309.805892 671.133707,329.539236 695.410648,329.539236 Z"/><mask id="mask-4" width="87.915" height="88.151" x="0" y="0" fill="#fff" maskContentUnits="userSpaceOnUse" maskUnits="objectBoundingBox"><use xlink:href="#path-3"/></mask><path id="path-5" d="M736.229458,394.81504 C760.506398,394.81504 780.186747,375.081696 780.186747,350.739382 C780.186747,326.397068 760.506398,306.663723 736.229458,306.663723 C711.952517,306.663723 692.272168,326.397068 692.272168,350.739382 C692.272168,375.081696 711.952517,394.81504 736.229458,394.81504 Z"/><mask id="mask-6" width="87.915" height="88.151" x="0" y="0" fill="#fff" maskContentUnits="userSpaceOnUse" maskUnits="objectBoundingBox"><use xlink:href="#path-5"/></mask><path id="path-7" d="M916.220252,209.802084 C940.497192,209.802084 960.177541,190.06874 960.177541,165.726426 C960.177541,141.384112 940.497192,121.650768 916.220252,121.650768 C891.943311,121.650768 872.262962,141.384112 872.262962,165.726426 C872.262962,190.06874 891.943311,209.802084 916.220252,209.802084 Z"/><mask id="mask-8" width="87.915" height="88.151" x="0" y="0" fill="#fff" maskContentUnits="userSpaceOnUse" maskUnits="objectBoundingBox"><use xlink:href="#path-7"/></mask><path id="path-9" d="M1008.22025,222.802084 C1032.49719,222.802084 1052.17754,203.06874 1052.17754,178.726426 C1052.17754,154.384112 1032.49719,134.650768 1008.22025,134.650768 C983.943311,134.650768 964.262962,154.384112 964.262962,178.726426 C964.262962,203.06874 983.943311,222.802084 1008.22025,222.802084 Z"/><mask id="mask-10" width="87.915" height="88.151" x="0" y="0" fill="#fff" maskContentUnits="userSpaceOnUse" maskUnits="objectBoundingBox"><use xlink:href="#path-9"/></mask><path id="path-11" d="M628.293839,135.06151 C652.57078,135.06151 672.251128,115.328165 672.251128,90.9858512 C672.251128,66.6435373 652.57078,46.9101928 628.293839,46.9101928 C604.016899,46.9101928 584.33655,66.6435373 584.33655,90.9858512 C584.33655,115.328165 604.016899,135.06151 628.293839,135.06151 Z"/><mask id="mask-12" width="87.915" height="88.151" x="0" y="0" fill="#fff" maskContentUnits="userSpaceOnUse" maskUnits="objectBoundingBox"><use xlink:href="#path-11"/></mask><path id="path-13" d="M377.293839,166.06151 C401.57078,166.06151 421.251128,146.328165 421.251128,121.985851 C421.251128,97.6435373 401.57078,77.9101928 377.293839,77.9101928 C353.016899,77.9101928 333.33655,97.6435373 333.33655,121.985851 C333.33655,146.328165 353.016899,166.06151 377.293839,166.06151 Z"/><mask id="mask-14" width="87.915" height="88.151" x="0" y="0" fill="#fff" maskContentUnits="userSpaceOnUse" maskUnits="objectBoundingBox"><use xlink:href="#path-13"/></mask><path id="path-15" d="M835.418675,170.28406 C859.695615,170.28406 879.375964,150.550716 879.375964,126.208402 C879.375964,101.866088 859.695615,82.1327436 835.418675,82.1327436 C811.141734,82.1327436 791.461386,101.866088 791.461386,126.208402 C791.461386,150.550716 811.141734,170.28406 835.418675,170.28406 Z"/><mask id="mask-16" width="87.915" height="88.151" x="0" y="0" fill="#fff" maskContentUnits="userSpaceOnUse" maskUnits="objectBoundingBox"><use xlink:href="#path-15"/></mask><path id="path-17" d="M288.189589,114.61789 C319.469493,114.61789 344.826866,89.1922345 344.826866,57.8280992 C344.826866,26.4639639 319.469493,1.03830861 288.189589,1.03830861 C256.909685,1.03830861 231.552313,26.4639639 231.552313,57.8280992 C231.552313,89.1922345 256.909685,114.61789 288.189589,114.61789 Z"/><mask id="mask-18" width="113.275" height="113.58" x="0" y="0" fill="#fff" maskContentUnits="userSpaceOnUse" maskUnits="objectBoundingBox"><use xlink:href="#path-17"/></mask><path id="path-19" d="M501.922681,282.629043 C526.199622,282.629043 545.87997,262.895699 545.87997,238.553385 C545.87997,214.211071 526.199622,194.477726 501.922681,194.477726 C477.64574,194.477726 457.965392,214.211071 457.965392,238.553385 C457.965392,262.895699 477.64574,282.629043 501.922681,282.629043 Z"/><mask id="mask-20" width="87.915" height="88.151" x="0" y="0" fill="#fff" maskContentUnits="userSpaceOnUse" maskUnits="objectBoundingBox"><use xlink:href="#path-19"/></mask><path id="path-21" d="M542.741491,347.904847 C567.018432,347.904847 586.69878,328.171503 586.69878,303.829189 C586.69878,279.486875 567.018432,259.75353 542.741491,259.75353 C518.46455,259.75353 498.784202,279.486875 498.784202,303.829189 C498.784202,328.171503 518.46455,347.904847 542.741491,347.904847 Z"/><mask id="mask-22" width="87.915" height="88.151" x="0" y="0" fill="#fff" maskContentUnits="userSpaceOnUse" maskUnits="objectBoundingBox"><use xlink:href="#path-21"/></mask><path id="path-23" d="M722.732285,162.891892 C747.009226,162.891892 766.689574,143.158547 766.689574,118.816233 C766.689574,94.4739193 747.009226,74.7405749 722.732285,74.7405749 C698.455345,74.7405749 678.774996,94.4739193 678.774996,118.816233 C678.774996,143.158547 698.455345,162.891892 722.732285,162.891892 Z"/><mask id="mask-24" width="87.915" height="88.151" x="0" y="0" fill="#fff" maskContentUnits="userSpaceOnUse" maskUnits="objectBoundingBox"><use xlink:href="#path-23"/></mask><path id="path-25" d="M814.732285,175.891892 C839.009226,175.891892 858.689574,156.158547 858.689574,131.816233 C858.689574,107.473919 839.009226,87.7405749 814.732285,87.7405749 C790.455345,87.7405749 770.774996,107.473919 770.774996,131.816233 C770.774996,156.158547 790.455345,175.891892 814.732285,175.891892 Z"/><mask id="mask-26" width="87.915" height="88.151" x="0" y="0" fill="#fff" maskContentUnits="userSpaceOnUse" maskUnits="objectBoundingBox"><use xlink:href="#path-25"/></mask><path id="path-27" d="M434.805873,88.1513168 C459.082813,88.1513168 478.763162,68.4179723 478.763162,44.0756584 C478.763162,19.7333444 459.082813,0 434.805873,0 C410.528932,0 390.848583,19.7333444 390.848583,44.0756584 C390.848583,68.4179723 410.528932,88.1513168 434.805873,88.1513168 Z"/><mask id="mask-28" width="87.915" height="88.151" x="0" y="0" fill="#fff" maskContentUnits="userSpaceOnUse" maskUnits="objectBoundingBox"><use xlink:href="#path-27"/></mask><path id="path-29" d="M183.805873,119.151317 C208.082813,119.151317 227.763162,99.4179723 227.763162,75.0756584 C227.763162,50.7333444 208.082813,31 183.805873,31 C159.528932,31 139.848583,50.7333444 139.848583,75.0756584 C139.848583,99.4179723 159.528932,119.151317 183.805873,119.151317 Z"/><mask id="mask-30" width="87.915" height="88.151" x="0" y="0" fill="#fff" maskContentUnits="userSpaceOnUse" maskUnits="objectBoundingBox"><use xlink:href="#path-29"/></mask><path id="path-31" d="M641.930708,123.373868 C666.207649,123.373868 685.887998,103.640523 685.887998,79.2982091 C685.887998,54.9558952 666.207649,35.2225508 641.930708,35.2225508 C617.653768,35.2225508 597.973419,54.9558952 597.973419,79.2982091 C597.973419,103.640523 617.653768,123.373868 641.930708,123.373868 Z"/><mask id="mask-32" width="87.915" height="88.151" x="0" y="0" fill="#fff" maskContentUnits="userSpaceOnUse" maskUnits="objectBoundingBox"><use xlink:href="#path-31"/></mask></defs><g id="Google-Fonts-SUSE-Specimen-02" fill="none" fill-rule="evenodd" stroke="none" stroke-width="1"><rect width="760" height="506" x="0" y="0" fill="#EFEFEF"/><g id="Group-4" transform="translate(-342.895532, 0.000000)"><rect id="bg" width="760" height="506" x="342.896" y="0" fill="#EFEFEF"/><g id="Group" transform="translate(342.895532, 0.000000)"><rect id="Rectangle" width="63.64" height="6" x="0" y="0" fill="#0B322C"/><rect id="Rectangle" width="63.64" height="6" x="63.305" y="0" fill="#0B322C"/><rect id="Rectangle" width="63.64" height="6" x="126.611" y="0" fill="#FE7B3F"/><rect id="Rectangle" width="63.64" height="6" x="189.916" y="0" fill="#2FBA78"/><rect id="Rectangle" width="63.64" height="6" x="253.222" y="0" fill="#2FBA78"/><rect id="Rectangle" width="63.64" height="6" x="316.527" y="0" fill="#2FBA78"/><rect id="Rectangle" width="63.64" height="6" x="379.833" y="0" fill="#2FBA78"/><rect id="Rectangle" width="63.64" height="6" x="443.138" y="0" fill="#2FBA78"/><rect id="Rectangle" width="63.64" height="6" x="506.443" y="0" fill="#EFEFEF"/><rect id="Rectangle" width="63.64" height="6" x="569.749" y="0" fill="#2453FF"/><rect id="Rectangle" width="63.64" height="6" x="633.054" y="0" fill="#2453FF"/><rect id="Rectangle" width="63.64" height="6" x="696.36" y="0" fill="#2453FF"/></g><g id="Group-3" transform="translate(0.000000, 39.184960)"><g id="Group-2"><text id="GElgia" fill="#0B322C" fill-rule="nonzero" font-family="SUSE20240618-Bold, SUSE 20240618" font-size="325.968" font-weight="bold" line-spacing="309.855"><tspan x="131.554" y="264.296">GElgia</tspan></text><use id="Oval" stroke="#30BA78" stroke-dasharray="3 4" stroke-width="4" mask="url(#mask-2)" xlink:href="#path-1"/><use id="Oval" stroke="#30BA78" stroke-dasharray="3 4" stroke-width="4" mask="url(#mask-4)" xlink:href="#path-3"/><use id="Oval" stroke="#30BA78" stroke-dasharray="3 4" stroke-width="4" mask="url(#mask-6)" xlink:href="#path-5"/><use id="Oval" stroke="#30BA78" stroke-dasharray="3 4" stroke-width="4" mask="url(#mask-8)" xlink:href="#path-7"/><use id="Oval" stroke="#30BA78" stroke-dasharray="3 4" stroke-width="4" mask="url(#mask-10)" xlink:href="#path-9"/><use id="Oval" stroke="#30BA78" stroke-dasharray="3 4" stroke-width="4" mask="url(#mask-12)" xlink:href="#path-11"/><use id="Oval" stroke="#30BA78" stroke-dasharray="3 4" stroke-width="4" mask="url(#mask-14)" xlink:href="#path-13"/><use id="Oval" stroke="#30BA78" stroke-dasharray="3 4" stroke-width="4" mask="url(#mask-16)" xlink:href="#path-15"/></g><line id="Line" x1="344.394" x2="1102.397" y1="305.899" y2="305.899" stroke="#0B322C" stroke-linecap="square" stroke-width=".5" opacity=".375"/><line id="Line" x1="344.394" x2="1102.397" y1="371.763" y2="371.763" stroke="#0B322C" stroke-linecap="square" stroke-width=".5" opacity=".375"/><line id="Line" x1="344.394" x2="1102.397" y1="146.886" y2="146.886" stroke="#0B322C" stroke-linecap="square" stroke-width=".5" opacity=".375"/><line id="Line" x1="344.394" x2="1102.397" y1="78.2" y2="78.2" stroke="#0B322C" stroke-linecap="square" stroke-width=".5" opacity=".375"/><line id="Line" x1="344.394" x2="1102.397" y1="68.791" y2="68.791" stroke="#0B322C" stroke-linecap="square" stroke-width=".5" opacity=".375"/></g></g><g id="Group-4-Copy" transform="translate(-149.407566, 0.000000)"><rect id="bg" width="760" height="506" x="149.408" y="0" fill="#EFEFEF"/><g id="Group" transform="translate(149.407566, 0.000000)"><rect id="Rectangle" width="63.64" height="6" x="0" y="0" fill="#0B322C"/><rect id="Rectangle" width="63.64" height="6" x="63.305" y="0" fill="#0B322C"/><rect id="Rectangle" width="63.64" height="6" x="126.611" y="0" fill="#FE7B3F"/><rect id="Rectangle" width="63.64" height="6" x="189.916" y="0" fill="#2FBA78"/><rect id="Rectangle" width="63.64" height="6" x="253.222" y="0" fill="#2FBA78"/><rect id="Rectangle" width="63.64" height="6" x="316.527" y="0" fill="#2FBA78"/><rect id="Rectangle" width="63.64" height="6" x="379.833" y="0" fill="#2FBA78"/><rect id="Rectangle" width="63.64" height="6" x="443.138" y="0" fill="#2FBA78"/><rect id="Rectangle" width="63.64" height="6" x="506.443" y="0" fill="#EFEFEF"/><rect id="Rectangle" width="63.64" height="6" x="569.749" y="0" fill="#2453FF"/><rect id="Rectangle" width="63.64" height="6" x="633.054" y="0" fill="#2453FF"/><rect id="Rectangle" width="63.64" height="6" x="696.36" y="0" fill="#2453FF"/></g><g id="Group-3" transform="translate(0.000000, 86.095153)"><g id="Group-2"><g id="GElgia" fill="#0B322C" fill-rule="nonzero" transform="translate(0.000000, 20.988577)"><path id="Path" d="M116.696376,242.84581 C187.757298,242.84581 230.133077,190.03907 220.354051,111.154928 L123.867662,111.154928 L123.867662,148.641194 L175.696499,148.641194 C174.718597,178.304239 150.922967,199.492129 118.000246,199.492129 C76.6023698,199.492129 47.265292,169.177149 47.265292,125.497499 L47.265292,122.563792 C47.265292,79.21011 76.9283373,48.5691621 119.304116,48.5691621 C138.862168,48.5691621 155.81248,55.4144802 169.503116,70.7349542 L201.773902,38.7901362 C180.586012,17.6022467 152.878772,4.88951296 118.652181,4.88951296 C48.8951296,4.88951296 0,53.4586751 0,122.563792 L0,125.497499 C0,194.276648 48.2431946,242.84581 116.696376,242.84581 Z"/><path id="Path" d="M292.066908,237.956298 L405.829576,237.956298 L405.829576,196.232454 L307.713349,196.232454 C302.497869,196.232454 298.586258,191.994876 298.586258,186.779395 L298.586258,143.099746 L398.984258,143.099746 L398.984258,103.331707 L298.586258,103.331707 L298.586258,60.9559283 C298.586258,55.7404478 302.497869,51.5028699 307.713349,51.5028699 L405.829576,51.5028699 L405.829576,9.77902593 L292.066908,9.77902593 C269.24918,9.77902593 252.950804,26.0774025 252.950804,48.5691621 L252.950804,199.166161 C252.950804,221.657921 269.24918,237.956298 292.066908,237.956298 Z"/><path id="Path" d="M492.536939,237.956298 L512.746926,237.956298 L512.746926,202.099869 L495.144679,202.099869 C489.929199,202.099869 486.017589,197.862291 486.017589,192.972778 L486.017589,0 L417.564407,0 L417.564407,36.5083635 L442.663907,36.5083635 L442.663907,191.994876 C442.663907,220.680018 461.895991,237.956298 492.536939,237.956298 Z"/><path id="Shape" d="M530.67514,303.149804 L632.702977,303.149804 C660.736185,303.149804 680.620204,283.591752 680.620204,257.188382 C680.620204,226.221466 661.714088,212.53083 634.658783,212.53083 L587.719458,212.53083 C584.459783,212.53083 583.807848,209.92309 585.111718,207.31535 L591.305101,194.928583 C595.216711,195.254551 599.128322,195.580519 603.3659,195.580519 C645.415711,195.580519 675.078756,171.132954 675.078756,136.254428 L675.078756,132.668785 C675.078756,110.502993 662.040055,92.5747788 641.178133,82.7957528 L662.040055,44.9835193 L618.360406,44.9835193 L604.66977,74.9725321 L603.3659,74.9725321 C561.316088,74.9725321 531.653043,99.0941294 531.653043,132.994753 L531.653043,136.254428 C531.653043,155.81248 541.106101,172.110856 556.752543,182.541817 L546.973517,202.751804 C536.542556,224.265661 543.061906,246.105486 568.161406,246.105486 L628.139432,246.105486 C636.614588,246.105486 640.200231,249.691129 640.200231,256.862414 C640.200231,264.0337 636.614588,267.619343 628.139432,267.619343 L530.67514,267.619343 L530.67514,303.149804 Z M574.028822,136.580395 L574.028822,134.950558 C574.028822,119.956051 586.08962,109.52509 603.3659,109.52509 C620.642179,109.52509 632.702977,119.630084 632.702977,134.950558 L632.702977,136.580395 C632.702977,151.900869 620.642179,162.983765 603.3659,162.983765 C586.08962,162.983765 574.028822,151.900869 574.028822,136.580395 Z"/><path id="Shape" d="M721.692113,237.956298 L765.045795,237.956298 L765.045795,78.2322074 L693.984873,78.2322074 L693.984873,114.740571 L721.692113,114.740571 L721.692113,237.956298 Z M719.736308,47.917227 L767.327568,47.917227 L767.327568,2.28177272 L719.736308,2.28177272 L719.736308,47.917227 Z"/><path id="Shape" d="M899.01845,237.956298 L937.482619,237.956298 C936.504716,221.005986 936.504716,204.055674 936.504716,187.105363 L936.504716,135.276525 C936.504716,96.1604216 908.145541,74.9725321 868.051535,74.9725321 C840.344295,74.9725321 813.940925,85.0775256 799.598353,100.723967 L818.830438,129.40911 C831.543171,118.652181 850.123321,112.458798 865.443794,112.458798 C882.068139,112.458798 893.80297,119.630084 893.80297,137.558298 L893.80297,150.922967 C885.001846,147.011356 873.91895,144.729584 860.554281,144.729584 C818.50447,144.729584 795.034808,165.265538 795.034808,193.950681 C795.034808,221.983889 818.50447,241.215973 854.360898,241.215973 C876.200723,241.215973 891.195229,234.044687 899.01845,221.005986 L899.01845,237.956298 Z M838.388489,191.668908 C838.388489,180.91198 849.797353,173.740694 866.09573,173.740694 C882.720074,173.740694 894.128937,180.91198 894.128937,191.668908 C894.128937,202.425837 882.720074,209.92309 866.09573,209.92309 C849.797353,209.92309 838.388489,202.425837 838.388489,191.668908 Z"/></g><use id="Oval" stroke="#30BA78" stroke-dasharray="3 4" stroke-width="4" mask="url(#mask-18)" xlink:href="#path-17"/><use id="Oval" stroke="#30BA78" stroke-dasharray="3 4" stroke-width="4" mask="url(#mask-20)" xlink:href="#path-19"/><use id="Oval" stroke="#30BA78" stroke-dasharray="3 4" stroke-width="4" mask="url(#mask-22)" xlink:href="#path-21"/><use id="Oval" stroke="#30BA78" stroke-dasharray="3 4" stroke-width="4" mask="url(#mask-24)" xlink:href="#path-23"/><use id="Oval" stroke="#30BA78" stroke-dasharray="3 4" stroke-width="4" mask="url(#mask-26)" xlink:href="#path-25"/><use id="Oval" stroke="#30BA78" stroke-dasharray="3 4" stroke-width="4" mask="url(#mask-28)" xlink:href="#path-27"/><use id="Oval" stroke="#30BA78" stroke-dasharray="3 4" stroke-width="4" mask="url(#mask-30)" xlink:href="#path-29"/><use id="Oval" stroke="#30BA78" stroke-dasharray="3 4" stroke-width="4" mask="url(#mask-32)" xlink:href="#path-31"/></g><line id="Line" x1="150.906" x2="908.909" y1="258.989" y2="258.989" stroke="#0B322C" stroke-linecap="square" stroke-width=".5" opacity=".375"/><line id="Line" x1="150.906" x2="908.909" y1="324.853" y2="324.853" stroke="#0B322C" stroke-linecap="square" stroke-width=".5" opacity=".375"/><line id="Line" x1="150.906" x2="908.909" y1="99.976" y2="99.976" stroke="#0B322C" stroke-linecap="square" stroke-width=".5" opacity=".375"/><line id="Line" x1="150.906" x2="908.909" y1="31.29" y2="31.29" stroke="#0B322C" stroke-linecap="square" stroke-width=".5" opacity=".375"/><line id="Line" x1="150.906" x2="908.909" y1="21.881" y2="21.881" stroke="#0B322C" stroke-linecap="square" stroke-width=".5" opacity=".375"/></g></g></g></svg>